<svg width="921" height="428" viewBox="0 0 921 428" fill="none" xmlns="http://www.w3.org/2000/svg">
<mask id="mask0_1728_250" style="mask-type:alpha" maskUnits="userSpaceOnUse" x="0" y="0" width="921" height="428">
<rect width="921" height="428" fill="#D9D9D9"/>
</mask>
<g mask="url(#mask0_1728_250)">
<path d="M50.4939 210.945C67.6795 210.945 79.3969 220.189 79.3969 233.729C79.3969 247.53 65.8568 255.992 43.4634 255.992H3.23349V255.732C5.44679 253.909 7.66008 252.477 10.5243 250.784V176.574C7.66008 175.012 5.44679 173.579 3.23349 171.757V171.496H44.8955C62.6019 171.496 74.059 178.527 74.059 190.635C74.059 200.79 66.1171 206.258 48.9316 210.945H50.4939ZM33.6989 174.1V210.945H45.1559C49.9731 206.388 52.8374 201.05 52.8374 192.458C52.8374 179.308 48.0202 174.1 39.6878 174.1H33.6989ZM42.1615 253.388C50.3637 253.388 56.4828 247.139 56.4828 235.031C56.4828 221.1 50.1033 213.549 38.3858 213.549H33.6989V250.133C36.8235 252.477 39.4274 253.388 42.1615 253.388ZM141.021 171.496H166.8V171.757C163.545 175.012 159.249 178.787 155.213 181.782L136.204 218.496V250.784C139.199 252.477 141.542 254.039 143.755 255.732V255.992H105.478V255.732C107.822 253.909 110.035 252.477 113.03 250.784V222.402L90.6363 176.574C88.5532 175.402 85.5588 173.449 83.4757 171.757V171.496H124.357V171.757C121.753 173.319 119.279 174.751 115.764 176.574L134.121 217.064L152.348 181.782C148.182 178.527 145.188 175.793 141.021 171.757V171.496ZM274.216 250.784C277.08 252.477 279.424 254.039 281.767 255.732V255.992H244.011V255.732C246.354 253.909 248.437 252.477 251.302 250.784L247.786 181.782H247.526L221.227 254.951H213.415L188.678 180.61L184.252 245.707C188.678 248.962 192.845 252.477 196.23 255.732V255.992H170.581V255.732C173.706 252.607 178.133 248.701 181.778 245.707L186.465 177.355C182.95 175.402 180.346 173.84 177.482 171.757V171.496H209.119L227.606 229.953L248.568 171.496H278.382V171.757C275.778 173.84 273.174 175.402 269.789 177.355L274.216 250.784ZM361.979 225.266C362.5 234.12 362.89 248.311 362.89 255.992H292.976V255.732C295.189 253.909 297.403 252.477 300.267 250.784V176.574C297.403 175.012 295.189 173.579 292.976 171.757V171.496H360.416C360.416 179.178 360.026 193.239 359.505 202.092H358.854L337.372 173.97L323.441 174.1V211.726H330.472C333.727 206.779 339.065 199.358 343.101 194.541H343.752V231.646H343.101C338.934 226.568 333.727 219.538 330.472 214.33H323.441V250.784L331.253 253.388H339.846L361.328 225.266H361.979ZM440.274 232.427C440.404 237.244 440.404 244.926 440.274 249.352C433.634 253.909 426.734 257.294 414.886 257.294C395.878 257.294 380.125 242.322 380.125 214.721C380.125 186.729 396.269 172.017 415.928 172.017C426.343 172.017 432.853 174.491 439.493 179.048C439.623 183.214 439.623 191.156 439.493 195.973H438.842L437.019 180.48C432.723 176.314 425.302 173.71 415.928 173.71C397.31 173.71 382.077 187.901 382.077 214.721C382.077 241.15 396.92 255.732 414.886 255.602C425.692 255.602 433.504 252.086 437.8 247.92L439.623 232.427H440.274ZM494.364 257.294C472.491 257.294 458.951 241.02 458.951 214.721C458.951 188.422 472.491 172.017 494.364 172.017C516.236 172.017 529.776 188.422 529.776 214.721C529.776 241.02 516.236 257.294 494.364 257.294ZM494.494 255.602C515.195 255.602 527.823 240.109 527.823 214.721C527.823 189.333 515.064 173.71 494.364 173.71C473.663 173.71 460.904 189.333 460.904 214.721C460.904 239.978 473.663 255.602 494.494 255.602ZM598.331 173.319H620.073V175.012H610.048V255.992H608.225L557.319 176.574V254.169C559.142 254.3 563.308 254.82 567.344 255.341V255.992H545.602V255.341C549.247 254.82 553.544 254.3 555.497 254.169V175.012H547.034V173.319H557.319L608.225 252.607V175.012H598.331V173.319ZM695.942 232.427C696.073 237.244 696.073 244.926 695.942 249.352C689.303 253.909 682.402 257.294 670.555 257.294C651.546 257.294 635.793 242.322 635.793 214.721C635.793 186.729 651.937 172.017 671.596 172.017C682.012 172.017 688.521 174.491 695.161 179.048C695.291 183.214 695.291 191.156 695.161 195.973H694.51L692.688 180.48C688.391 176.314 680.97 173.71 671.596 173.71C652.978 173.71 637.746 187.901 637.746 214.721C637.746 241.15 652.588 255.732 670.555 255.602C681.361 255.602 689.172 252.086 693.469 247.92L695.291 232.427H695.942ZM768.91 232.427C769.04 238.546 769.04 248.962 768.91 255.992H712.406V254.3H722.431V175.142C720.478 175.012 716.051 174.491 712.406 173.97V173.319H766.306V195.973H764.483V175.012H724.253V213.289H750.292C750.422 209.773 750.943 204.696 751.464 201.05H752.115V227.219H751.464C750.943 223.183 750.422 218.366 750.292 214.981H724.253V254.169L729.331 254.3H766.827L768.259 232.427H768.91ZM814.035 173.319C830.83 173.319 841.637 182.563 841.637 197.014C841.637 211.075 831.351 219.668 814.686 219.668H797.24V254.169C800.365 254.3 804.531 254.69 808.567 255.341V255.992H785.393V255.341C789.038 254.82 793.465 254.3 795.418 254.169V175.012H784.091V173.319H814.035ZM814.817 217.976C830.31 217.976 839.814 210.034 839.814 197.014C839.814 183.604 829.659 175.012 814.166 175.012H797.24V217.976H814.817ZM854.398 173.319H916.892V195.973H915.069V175.012H886.556V254.169C889.03 254.3 893.847 254.82 897.883 255.341V255.992H873.407V255.341C877.052 254.82 882.13 254.3 884.734 254.169V175.012H856.221V195.973H854.398V173.319Z" fill="black"/>
<path d="M703.841 108.471C704.054 109.817 704.107 111.113 703.922 112.407C703.866 112.801 703.974 112.9 704.349 113.017C705.511 113.381 706.717 113.697 707.77 114.278C708.526 114.694 709.202 115.416 709.673 116.155C710.794 117.912 712.494 118.788 714.298 119.582C716.295 120.46 717.978 121.69 718.616 123.912C718.907 124.925 718.993 125.976 718.875 127.04C718.727 128.37 718.678 129.715 718.467 131.035C718.208 132.66 717.903 134.286 717.478 135.874C716.97 137.776 716.235 139.591 715.043 141.205C713.58 143.188 711.682 144.563 709.437 145.516C707.086 146.514 704.597 146.924 702.086 147.159C700.633 147.294 699.158 147.183 697.694 147.205C695.213 147.243 692.779 146.84 690.357 146.394C689.051 146.154 687.79 145.673 686.497 145.355C683.657 144.655 681.025 143.405 678.337 142.308C676.882 141.714 675.478 140.986 674.086 140.252C671.53 138.906 668.959 137.579 666.472 136.112C664.495 134.945 662.621 133.599 660.724 132.301C658.417 130.724 656.308 128.905 654.22 127.048C651.249 124.405 648.353 121.688 645.583 118.834C644.675 117.898 643.667 117.059 642.686 116.197C642.408 115.952 642.065 115.781 641.752 115.576C641.379 115.332 641.075 115.375 640.704 115.663C639.02 116.966 637.269 118.183 635.614 119.52C633.007 121.628 630.402 123.749 628.118 126.214C626.346 128.126 624.579 130.049 622.933 132.066C620.384 135.189 618.335 138.651 616.581 142.269C615.66 144.165 614.962 146.173 614.226 148.155C613.773 149.375 613.405 150.629 613.059 151.885C612.695 153.199 612.385 154.529 612.087 155.861C611.856 156.899 611.681 157.95 611.477 158.995C611.299 159.907 611.083 160.813 610.944 161.731C610.751 163.012 610.598 164.3 610.459 165.588C610.331 166.765 610.229 167.947 610.143 169.128C610.016 170.86 609.895 172.592 609.806 174.325C609.723 175.951 609.667 177.578 609.633 179.206C609.594 181.08 609.596 182.955 609.574 184.829C609.557 186.227 609.51 187.626 609.514 189.024C609.521 190.85 609.575 192.676 609.593 194.503C609.605 195.768 609.558 197.034 609.6 198.298C609.664 200.201 609.777 202.102 609.879 204.003C609.937 205.068 610.049 206.132 610.06 207.197C610.062 207.459 609.762 207.723 609.6 207.986C609.446 207.742 609.184 207.509 609.156 207.252C608.95 205.355 608.747 203.455 608.633 201.55C608.538 199.966 608.57 198.374 608.538 196.786C608.502 195.036 608.442 193.286 608.423 191.536C608.41 190.414 608.466 189.291 608.468 188.169C608.471 186.723 608.436 185.277 608.448 183.831C608.455 182.851 608.525 181.872 608.544 180.891C608.565 179.845 608.543 178.798 608.571 177.752C608.593 176.933 608.689 176.115 608.703 175.297C608.71 174.87 608.604 174.442 608.562 174.014C608.508 173.458 608.507 172.893 608.413 172.344C608.18 170.973 607.939 169.601 607.642 168.243C607.32 166.768 606.845 165.343 606.17 163.979C605.454 162.532 604.422 161.37 603.197 160.355C602.547 159.815 601.894 159.279 601.22 158.772C601.011 158.615 600.733 158.532 600.474 158.461C599.116 158.084 597.764 157.674 596.388 157.372C595.504 157.178 594.584 157.146 593.678 157.052C593.175 157.001 592.67 156.947 592.165 156.937C590.806 156.911 589.446 156.897 588.086 156.899C587.248 156.9 586.407 157.002 585.574 156.949C584.161 156.859 582.737 156.778 581.35 156.519C578.903 156.064 576.617 155.19 574.529 153.761C573.166 152.83 571.95 151.77 570.972 150.476C569.713 148.808 568.87 146.904 568.874 144.788C568.878 143.056 569.528 141.512 570.922 140.359C572.593 138.977 574.594 138.475 576.673 138.277C577.908 138.159 579.177 138.135 580.405 138.28C581.863 138.453 583.354 138.692 584.722 139.197C586.442 139.831 588.097 140.686 589.701 141.587C591.663 142.688 593.427 144.09 595.027 145.677C595.842 146.486 596.616 147.342 597.356 148.221C598.793 149.926 599.849 151.854 600.456 153.998C600.688 154.818 600.805 155.689 600.828 156.542C600.846 157.252 601.338 157.484 601.757 157.836C602.82 158.728 603.9 159.602 604.935 160.524C606.166 161.621 606.967 163.011 607.58 164.53C608.206 166.084 608.555 167.701 608.82 169.344C608.835 169.439 608.925 169.521 608.98 169.609C609.042 169.519 609.153 169.432 609.159 169.338C609.215 168.522 609.254 167.705 609.291 166.887C609.296 166.783 609.235 166.672 609.249 166.57C609.685 163.474 610.103 160.375 610.581 157.285C610.762 156.116 611.038 154.957 611.351 153.816C612.065 151.219 612.84 148.644 613.803 146.12C614.939 143.143 616.315 140.288 617.907 137.542C618.836 135.941 619.894 134.404 621.02 132.934C622.659 130.794 624.323 128.66 626.141 126.674C627.745 124.921 629.543 123.34 631.315 121.75C632.704 120.505 634.167 119.341 635.63 118.181C636.965 117.123 638.34 116.113 639.708 115.096C639.944 114.919 639.942 114.833 639.84 114.528C638.694 111.122 636.529 108.332 634.419 105.517C633.184 103.872 631.809 102.332 630.53 100.718C629.214 99.0585 627.886 97.4046 626.658 95.6806C625.476 94.0203 624.377 92.297 623.31 90.5593C622.036 88.4836 620.76 86.4026 619.624 84.2493C618.611 82.3264 617.694 80.3399 616.904 78.3152C615.847 75.6006 615.084 72.7854 614.765 69.8763C614.555 67.9603 614.335 66.0378 614.284 64.1138C614.238 62.3567 614.386 60.5916 614.502 58.8339C614.574 57.7541 614.666 56.6636 614.892 55.6088C615.404 53.2187 616.013 50.8569 617.071 48.6244C617.733 47.2279 618.455 45.8718 619.399 44.6616C620.771 42.9022 622.307 41.2839 624.31 40.2216C625.662 39.5049 627.011 38.7278 628.451 38.2471C629.841 37.783 631.339 37.583 632.807 37.4228C633.703 37.3251 634.638 37.4718 635.543 37.5952C637.082 37.8045 638.473 38.4458 639.783 39.254C641.563 40.3522 643.032 41.804 644.42 43.3562C646.038 45.166 647.646 46.9909 649.363 48.7041C650.922 50.2593 652.793 51.3871 654.951 51.9439C656.458 52.3326 657.978 52.6724 659.499 53.0022C660.614 53.2438 661.749 53.3979 662.86 53.6546C665.135 54.1802 667.335 54.9603 669.248 56.3058C670.575 57.2395 671.636 58.4746 672.164 60.0917C672.703 61.7399 673.085 63.3987 672.864 65.1465C672.804 65.6194 673.23 65.6512 673.474 65.6955C675.186 66.0046 676.766 66.6565 678.181 67.6316C679.638 68.6351 680.9 69.8319 681.734 71.467C682.759 73.4768 683.182 75.6557 683.812 77.7837C684.265 79.313 684.925 80.7974 685.634 82.2319C686.708 84.4069 688.367 86.157 690.042 87.8819C691.877 89.7715 693.754 91.6242 695.507 93.5883C697.017 95.2807 698.454 97.0511 699.784 98.8879C701.123 100.737 702.204 102.764 702.963 104.925C703.365 106.052 703.563 107.249 703.841 108.471ZM629.225 40.876C629.174 40.9496 629.104 41.0169 629.076 41.0983C628.432 42.9595 627.753 44.8093 627.165 46.6877C626.656 48.3137 626.23 49.9665 625.809 51.6185C625.507 52.8035 625.212 53.9965 625.024 55.2035C624.593 57.9689 624.168 60.738 623.859 63.5186C623.637 65.5149 623.558 67.5313 623.504 69.5413C623.462 71.0892 623.456 72.6512 623.616 74.1877C623.845 76.3739 624.226 78.5442 624.567 80.7175C624.982 83.3542 625.735 85.8983 626.639 88.4086C627.663 91.2525 629.156 93.8408 630.788 96.3611C631.641 97.6776 632.51 98.9833 633.361 100.301C634.578 102.184 635.79 104.07 636.993 105.961C637.711 107.089 638.372 108.246 638.721 109.554C638.759 109.698 638.894 109.815 638.984 109.945C639.052 109.777 639.167 109.613 639.178 109.442C639.214 108.853 639.218 108.263 639.226 107.673C639.238 106.791 639.324 105.901 639.237 105.029C638.982 102.494 638.721 99.9562 638.34 97.4382C637.949 94.8608 637.572 92.2931 637.424 89.6826C637.298 87.4629 637.281 85.2463 637.577 83.0638C638.047 79.5955 638.428 76.0989 639.5 72.739C639.928 71.3978 640.374 70.0627 640.824 68.7287C641.632 66.3362 642.864 64.1521 644.141 61.99C644.911 60.6864 645.658 59.3685 646.461 58.0855C647.482 56.4543 648.537 54.8439 649.603 53.2422C649.911 52.7804 650.289 52.359 650.678 51.9612C650.787 51.8495 651.047 51.8856 651.238 51.8542C651.179 51.9918 651.142 52.1464 651.057 52.2643C650.846 52.5547 650.587 52.8125 650.392 53.1117C649.116 55.066 647.803 56.9992 646.596 58.9959C645.287 61.1605 644.009 63.3498 642.852 65.5976C642.047 67.1625 641.373 68.8123 640.812 70.4816C640.168 72.3921 639.568 74.3399 639.212 76.3187C638.679 79.2832 638.078 82.2516 638.023 85.2837C637.999 86.6056 637.918 87.9338 638.008 89.2492C638.155 91.3832 638.401 93.5105 638.644 95.6368C638.864 97.5596 639.133 99.4763 639.385 101.395C639.423 101.684 639.212 102.037 639.589 102.246C639.68 101.941 639.83 101.64 639.851 101.33C639.918 100.333 639.844 99.3182 639.993 98.3361C640.447 95.3401 640.975 92.3555 641.486 89.3689C641.734 87.9209 641.995 86.4751 642.277 85.0336C642.56 83.5874 642.857 82.1428 643.186 80.7064C643.443 79.5825 643.723 78.4617 644.059 77.359C644.543 75.7668 645.03 74.171 645.62 72.6166C646.365 70.6575 647.361 68.8178 648.541 67.0783C649.871 65.1147 651.407 63.325 653.072 61.642C654.673 60.0227 656.266 58.394 658.353 57.3687C660.304 56.4106 662.331 55.7275 664.508 55.5381C664.63 55.5276 664.749 55.4764 664.87 55.4442C664.778 55.3475 664.7 55.2303 664.592 55.1589C664.489 55.091 664.357 55.0582 664.233 55.032C663.475 54.8709 662.716 54.7071 661.955 54.5611C660.683 54.317 659.398 54.1274 658.136 53.8383C656.688 53.5064 655.224 53.1876 653.831 52.6879C651.985 52.0264 650.253 51.0717 648.858 49.6743C647.095 47.9084 645.398 46.073 643.739 44.2081C642.293 42.5814 640.772 41.068 638.888 39.9408C637.637 39.1926 636.272 38.7472 634.862 38.5648C633.713 38.4165 632.523 38.5143 631.357 38.5889C630.65 38.6345 629.983 38.8579 629.748 39.6959C629.642 40.0696 629.415 40.4077 629.225 40.876ZM652.542 113.914C652.451 113.919 652.358 113.914 652.271 113.932C650.485 114.306 648.677 114.47 646.855 114.495C646.161 114.505 645.467 114.509 644.773 114.528C644.672 114.531 644.573 114.605 644.473 114.647C644.57 114.722 644.656 114.843 644.764 114.866C646.167 115.156 647.45 115.751 648.697 116.424C651.018 117.677 653.355 118.906 655.63 120.239C658.319 121.814 661.011 123.362 664.047 124.184C665.536 124.588 667.017 125.062 668.532 125.325C670.341 125.639 672.182 125.774 674.011 125.962C674.884 126.051 675.763 126.145 676.637 126.126C678.121 126.095 679.604 125.993 681.085 125.891C683.932 125.694 686.711 125.104 689.441 124.308C691.952 123.576 694.37 122.617 696.613 121.224C698.913 119.797 700.903 118.097 701.965 115.546C702.333 114.662 702.652 113.683 702.662 112.744C702.674 111.665 701.983 110.71 701.22 109.988C699.489 108.353 697.474 107.187 695.055 106.876C694.076 106.749 693.095 106.641 692.113 106.536C691.611 106.483 691.105 106.428 690.6 106.422C689.336 106.404 688.071 106.401 686.806 106.416C685.458 106.433 684.106 106.431 682.761 106.521C681.274 106.62 679.793 106.818 678.309 106.967C675.226 107.276 672.2 107.887 669.246 108.806C666.601 109.628 663.989 110.552 661.358 111.415C659.594 111.995 657.833 112.586 656.049 113.099C654.922 113.424 653.756 113.615 652.542 113.914ZM643.686 112.891C643.415 113.056 643.133 113.206 642.875 113.389C642.649 113.549 642.449 113.746 642.238 113.926C642.493 113.955 642.748 114.013 643.003 114.009C644.791 113.983 646.588 114.046 648.364 113.887C651.571 113.602 654.738 113.049 657.799 111.996C660.64 111.019 663.472 110.013 666.334 109.103C668.405 108.445 670.499 107.832 672.619 107.368C674.867 106.876 677.146 106.453 679.434 106.238C682.321 105.966 685.23 105.881 688.131 105.819C689.851 105.782 691.583 105.866 693.295 106.04C694.621 106.176 695.959 106.324 697.229 106.847C699.487 107.777 701.576 108.879 702.675 111.233C702.715 111.319 702.814 111.379 702.885 111.45C702.95 111.344 703.068 111.236 703.067 111.13C703.064 110.844 703.001 110.56 702.977 110.275C702.8 108.079 702.432 105.929 701.393 103.952C700.809 102.842 700.234 101.725 699.581 100.656C698.555 98.9769 697.425 97.3726 695.993 95.9957C694.716 94.7676 693.198 93.8789 691.777 92.8508C689.785 91.4106 687.592 90.5088 685.178 90.1294C684.394 90.0061 683.596 89.9781 682.809 89.8678C681.122 89.6306 679.428 89.6984 677.761 89.9272C674.166 90.4207 670.835 91.703 667.884 93.809C665.882 95.2375 663.989 96.8272 662.113 98.4216C660.316 99.949 658.625 101.6 656.848 103.152C655.277 104.526 653.685 105.881 652.04 107.164C650.934 108.026 649.716 108.742 648.556 109.535C646.951 110.631 645.354 111.739 643.686 112.891ZM671.609 137.769C673.675 138.793 675.741 139.815 677.806 140.84C680.719 142.285 683.727 143.496 686.867 144.339C688.839 144.868 690.839 145.292 692.834 145.736C693.266 145.832 693.726 145.802 694.173 145.838C695.239 145.922 696.303 146.057 697.371 146.088C698.872 146.131 700.378 146.147 701.878 146.083C703.705 146.006 705.506 145.696 707.261 145.172C708.466 144.812 709.607 144.322 710.693 143.662C712.494 142.569 713.954 141.2 714.99 139.336C715.999 137.522 716.49 135.55 716.893 133.564C717.277 131.676 717.377 129.732 717.713 127.832C717.96 126.439 717.715 125.089 717.624 123.721C717.619 123.637 717.543 123.558 717.5 123.477C717.439 123.517 717.358 123.544 717.321 123.599C717.242 123.717 717.17 123.846 717.124 123.979C716.896 124.634 716.755 125.332 716.442 125.943C714.931 128.885 712.684 131.181 709.867 132.856C708.281 133.799 706.56 134.54 704.842 135.224C703.203 135.876 701.514 136.45 699.797 136.846C697.991 137.263 696.134 137.511 694.285 137.677C692.848 137.805 691.372 137.834 689.945 137.655C687.952 137.404 685.981 136.956 684.016 136.521C682.773 136.247 681.523 135.934 680.339 135.475C678.09 134.606 675.83 133.73 673.677 132.654C671.05 131.34 668.522 129.827 665.962 128.381C663.589 127.041 661.255 125.63 658.86 124.331C654.924 122.196 650.953 120.127 646.996 118.03C646.681 117.863 646.372 117.682 646.044 117.542C645.951 117.503 645.806 117.586 645.683 117.613C645.753 117.695 645.812 117.788 645.892 117.857C646.247 118.163 646.628 118.441 646.962 118.768C648.205 119.984 649.39 121.265 650.677 122.433C654.558 125.955 658.356 129.581 662.765 132.469C664.061 133.318 665.336 134.203 666.663 135.003C668.251 135.957 669.882 136.838 671.609 137.769ZM678.813 69.4679C677.164 67.9367 675.18 67.1026 672.996 66.6989C672.672 66.6389 672.33 66.6833 671.999 66.6513C671.144 66.5673 670.293 66.4273 669.436 66.3822C667.492 66.2804 665.603 66.6612 663.76 67.2181C661.91 67.777 660.148 68.5506 658.508 69.6089C656.54 70.8798 654.704 72.2929 653.077 73.9881C651.375 75.7597 649.86 77.6683 648.637 79.7937C647.641 81.5242 646.594 83.2457 645.815 85.0752C644.84 87.3634 644.062 89.7418 643.302 92.1143C642.852 93.5191 642.522 94.9741 642.278 96.4302C641.883 98.7902 641.602 101.169 641.274 103.54C641.268 103.579 641.258 103.616 641.256 103.655C641.19 105.082 641.133 106.51 641.056 107.936C641.024 108.537 640.948 109.135 640.902 109.735C640.897 109.806 640.954 109.882 640.983 109.955C641.066 109.917 641.174 109.899 641.227 109.836C641.305 109.743 641.369 109.623 641.398 109.505C641.914 107.427 643.004 105.617 644.17 103.874C645.531 101.841 647.038 99.9057 648.485 97.9314C649.669 96.3169 650.794 94.6519 652.069 93.1122C653.115 91.8497 654.403 90.7904 655.481 89.5517C657.491 87.2424 659.434 84.8745 661.391 82.5195C663.277 80.2503 665.094 77.9229 667.038 75.7052C668.139 74.4497 669.355 73.264 670.663 72.2286C672.038 71.1401 673.641 70.3723 675.396 70.0537C676.436 69.8652 677.495 69.8206 678.475 70.3552C679.053 70.6705 679.615 71.0155 680.186 71.3442C680.257 71.3846 680.337 71.4082 680.412 71.4398C680.418 71.3351 680.461 71.2127 680.422 71.1299C680.369 71.0199 680.249 70.9424 680.162 70.8475C679.75 70.394 679.339 69.9396 678.813 69.4679ZM657.34 122.971C659.57 124.172 661.838 125.309 664.021 126.589C667.544 128.656 671.046 130.758 674.74 132.513C676.07 133.145 677.409 133.765 678.779 134.301C679.937 134.753 681.14 135.099 682.336 135.447C683.708 135.846 685.08 136.268 686.479 136.544C687.879 136.819 689.31 136.959 690.733 137.097C691.745 137.195 692.775 137.288 693.785 137.212C696.643 136.998 699.453 136.48 702.191 135.608C704.63 134.83 707.039 133.963 709.198 132.557C710.421 131.76 711.656 130.942 712.726 129.959C714.693 128.152 716.029 125.894 716.851 123.35C716.924 123.125 716.871 122.721 716.714 122.582C716.045 121.989 715.358 121.393 714.596 120.931C713.713 120.395 712.734 120.019 711.817 119.535C711.304 119.263 710.993 119.297 710.644 119.758C710.277 120.245 709.913 120.738 709.508 121.192C708.614 122.196 707.484 122.864 706.291 123.463C704.045 124.592 701.726 125.498 699.237 125.895C697.628 126.152 696.013 126.404 694.39 126.536C692.867 126.661 691.33 126.627 689.798 126.662C688.959 126.68 688.109 126.791 687.284 126.689C686.237 126.561 685.184 127.08 684.152 126.613C684.052 126.568 683.904 126.627 683.779 126.639C682.527 126.766 681.272 126.872 680.022 127.022C677.509 127.323 674.996 127.164 672.489 127C671.256 126.92 670.027 126.682 668.812 126.438C667.229 126.12 665.64 125.802 664.096 125.341C662.767 124.944 661.448 124.445 660.213 123.816C657.911 122.642 655.689 121.314 653.407 120.1C650.931 118.784 648.431 117.514 645.929 116.25C645.303 115.933 644.633 115.698 643.969 115.465C643.805 115.408 643.585 115.511 643.391 115.54C643.525 115.658 643.642 115.809 643.796 115.887C644.449 116.221 645.122 116.516 645.771 116.857C647.223 117.622 648.661 118.413 650.112 119.18C651.137 119.724 652.174 120.246 653.204 120.78C654.568 121.488 655.93 122.197 657.34 122.971ZM676.646 75.5116C675.691 76.1082 674.708 76.664 673.789 77.3106C672.104 78.4953 670.445 79.7167 668.799 80.9541C667.414 81.9951 666.029 83.0404 664.708 84.1599C663.422 85.249 662.161 86.3789 660.994 87.5921C659.641 88.9982 658.382 90.4965 657.123 91.9889C656.256 93.016 655.427 94.079 654.635 95.1655C653.268 97.0415 651.885 98.9101 650.618 100.853C649.452 102.642 648.527 104.592 647.319 106.349C645.848 108.486 644.191 110.494 642.62 112.562C642.548 112.657 642.525 112.789 642.48 112.904C642.617 112.891 642.79 112.925 642.887 112.855C643.205 112.624 643.476 112.327 643.801 112.106C645.511 110.941 647.276 109.851 648.94 108.623C651.332 106.857 653.679 105.026 655.996 103.161C657.285 102.124 658.474 100.963 659.707 99.8577C661.342 98.3925 662.92 96.8557 664.629 95.4824C666.051 94.34 667.57 93.2909 669.151 92.3837C670.624 91.539 672.196 90.8222 673.798 90.2585C675.499 89.6592 677.282 89.3551 679.114 89.2676C680.761 89.1888 682.394 89.1663 684.024 89.3699C684.982 89.4896 685.95 89.6501 686.869 89.9368C688.075 90.3136 689.294 90.7263 690.401 91.3204C691.557 91.9407 692.584 92.8004 693.679 93.5393C693.799 93.6206 693.991 93.5952 694.15 93.6194C694.08 93.4923 694.037 93.3371 693.936 93.2423C693.357 92.6926 692.737 92.1827 692.18 91.6109C690.842 90.2351 689.568 88.7959 688.199 87.4519C686.851 86.1271 685.717 84.6356 684.801 83.012C683.56 80.8117 682.775 78.4206 682.295 75.9286C682.218 75.526 681.898 74.9709 681.564 74.8575C680.871 74.6224 680.068 74.4775 679.357 74.5879C678.451 74.7281 677.592 75.1579 676.646 75.5116ZM633.019 102.046C633.099 102.155 633.178 102.263 633.257 102.372C633.95 103.319 634.634 104.271 635.337 105.209C635.758 105.771 636.205 106.314 636.646 106.861C636.686 106.911 636.766 106.93 636.827 106.963C636.834 106.884 636.858 106.8 636.841 106.726C636.819 106.622 636.782 106.514 636.725 106.426C636.149 105.538 635.572 104.651 634.986 103.769C634.24 102.647 633.472 101.54 632.739 100.41C631.572 98.6094 630.411 96.8046 629.281 94.9816C628.686 94.0229 628.131 93.0365 627.613 92.0341C626.414 89.7089 625.503 87.269 624.883 84.7272C624.486 83.101 624.078 81.4736 623.779 79.8279C623.383 77.6348 623.061 75.4283 623.035 73.1887C623.011 71.239 622.892 69.2894 622.911 67.3403C622.924 65.9406 623.061 64.5388 623.203 63.1441C623.353 61.6639 623.561 60.1894 623.771 58.7164C623.845 58.1985 624.018 57.6954 624.116 57.1796C624.383 55.7743 624.59 54.3565 624.904 52.9623C625.222 51.5509 625.637 50.1612 626.012 48.7624C626.286 47.7413 626.523 46.7081 626.848 45.7035C627.295 44.3187 627.782 42.9454 628.308 41.5888C628.584 40.8751 628.98 40.2074 629.317 39.5165C629.365 39.4184 629.385 39.3057 629.417 39.1998C629.276 39.181 629.117 39.1108 628.995 39.1514C626.787 39.8879 624.802 41.0089 622.985 42.4775C621.617 43.5832 620.447 44.8603 619.505 46.3103C617.747 49.0171 616.712 52.0344 616.131 55.1951C615.828 56.8461 615.659 58.5232 615.465 60.1928C615.362 61.0823 615.261 61.9834 615.291 62.8754C615.351 64.6641 615.489 66.4511 615.617 68.237C615.799 70.7799 616.331 73.2715 617.119 75.6764C617.88 77.9972 618.793 80.2891 619.871 82.4796C620.999 84.7728 622.374 86.9489 623.697 89.1421C624.67 90.7559 625.678 92.3553 626.769 93.8905C628.338 96.0961 629.988 98.2431 631.621 100.402C632.038 100.952 632.519 101.455 633.019 102.046ZM657.645 58.398C656.035 59.4791 654.628 60.7954 653.294 62.1914C651.363 64.2098 649.533 66.3252 648.121 68.7358C646.621 71.2969 645.535 74.0602 644.712 76.9149C644.279 78.4161 643.89 79.9316 643.54 81.4543C643.172 83.0587 642.86 84.6767 642.551 86.2939C642.245 87.8877 641.966 89.4867 641.687 91.0852C641.282 93.4051 640.861 95.7231 640.501 98.05C640.349 99.028 640.345 100.028 640.26 101.017C640.107 102.797 639.931 104.576 639.795 106.357C639.772 106.669 639.898 106.993 639.954 107.311C640.056 106.977 640.254 106.64 640.243 106.309C640.195 104.887 640.31 103.476 640.452 102.065C640.541 101.179 640.616 100.29 640.753 99.4106C640.904 98.4486 641.117 97.4963 641.308 96.541C641.467 95.7433 641.665 94.9515 641.789 94.1483C642.097 92.1566 642.664 90.2392 643.399 88.3707C644.047 86.7266 644.678 85.0724 645.417 83.4692C646.735 80.6057 648.4 77.947 650.362 75.4732C651.935 73.4895 653.712 71.7097 655.713 70.1712C656.663 69.4415 657.721 68.8497 658.754 68.2347C660.882 66.968 663.19 66.1448 665.608 65.6815C667.388 65.3404 669.199 65.1323 671.022 65.3374C671.682 65.4115 671.888 65.2639 671.897 64.6C671.899 64.477 671.845 64.3534 671.843 64.2294C671.807 62.0355 671.36 60.0023 669.841 58.2861C668.407 56.665 666.631 55.8016 664.513 56.0468C662.108 56.3247 659.82 57.113 657.645 58.398ZM590.233 151.071C589.694 150.655 589.16 150.232 588.614 149.826C586.078 147.94 583.525 146.08 580.639 144.742C578.815 143.895 576.903 143.317 574.94 142.914C574.278 142.778 573.591 142.754 572.914 142.711C572.27 142.67 571.622 142.641 570.979 142.668C570.639 142.682 570.288 142.769 570.248 143.257C570.203 143.8 570.043 144.335 570.014 144.878C569.933 146.43 570.522 147.792 571.339 149.059C572.485 150.833 573.965 152.264 575.794 153.345C577.345 154.26 578.982 154.942 580.748 155.268C582.934 155.67 585.131 155.953 587.371 155.851C588.927 155.78 590.49 155.873 592.049 155.854C593.796 155.833 595.504 156.063 597.181 156.54C597.731 156.697 598.273 156.876 598.825 157.02C598.959 157.055 599.119 156.991 599.267 156.972C599.147 156.878 599.042 156.753 598.906 156.695C597.059 155.899 595.395 154.793 593.751 153.655C592.577 152.841 591.437 151.978 590.233 151.071ZM675.413 70.6371C675.237 70.6682 675.055 70.6807 674.886 70.7338C672.506 71.4779 670.493 72.8196 668.832 74.6498C667.12 76.534 665.464 78.4711 663.834 80.4269C662.109 82.497 660.474 84.6426 658.742 86.7062C657.623 88.0398 656.398 89.2846 655.223 90.572C654.023 91.8851 652.748 93.1388 651.65 94.5313C650.167 96.4092 648.815 98.3897 647.419 100.335C645.723 102.697 643.865 104.958 642.69 107.652C642.212 108.746 641.787 109.869 641.423 111.006C641.223 111.628 641.187 112.307 641.111 112.964C641.091 113.138 641.194 113.326 641.24 113.507C641.375 113.394 641.532 113.3 641.636 113.164C641.721 113.055 641.711 112.872 641.795 112.762C642.753 111.51 643.765 110.296 644.678 109.011C645.989 107.165 647.26 105.288 648.489 103.387C649.485 101.847 650.339 100.215 651.353 98.6882C653.249 95.835 655.372 93.1505 657.57 90.5227C659.512 88.2022 661.603 86.0298 663.886 84.0517C665.346 82.7861 666.865 81.5804 668.42 80.4323C670.248 79.0833 672.118 77.788 674.018 76.5434C675.208 75.7637 676.46 75.0632 677.738 74.4347C678.765 73.9291 679.896 73.78 681.043 74.0325C681.301 74.0891 681.549 74.193 681.802 74.275C681.711 74.0038 681.673 73.6983 681.522 73.4664C680.618 72.0803 679.388 71.0891 677.758 70.7305C677.024 70.5683 676.24 70.6294 675.413 70.6371ZM574.877 141.02C573.889 141.179 572.899 141.324 571.915 141.505C571.602 141.562 571.3 141.702 571.008 141.835C570.919 141.876 570.88 142.023 570.818 142.121C570.915 142.145 571.012 142.19 571.109 142.188C571.727 142.174 572.352 142.083 572.962 142.143C573.964 142.243 574.975 142.366 575.95 142.61C577.341 142.957 578.747 143.313 580.067 143.859C582.346 144.802 584.457 146.09 586.467 147.515C588.481 148.943 590.436 150.453 592.395 151.957C594.565 153.623 596.904 155.026 599.235 156.443C599.372 156.526 599.551 156.551 599.714 156.574C599.772 156.582 599.862 156.515 599.896 156.458C599.915 156.427 599.863 156.331 599.82 156.287C599.143 155.585 598.448 154.901 597.786 154.186C596.715 153.026 595.659 151.851 594.607 150.673C593.959 149.949 593.378 149.158 592.682 148.485C591.117 146.97 589.451 145.583 587.616 144.382C585.492 142.993 583.215 142.014 580.755 141.485C579.494 141.213 578.191 141.114 576.902 140.997C576.271 140.939 575.628 141.02 574.877 141.02ZM591.044 146.221C591.223 146.373 591.42 146.508 591.577 146.68C593.412 148.67 595.248 150.66 597.068 152.664C597.922 153.604 598.739 154.577 599.581 155.529C599.646 155.603 599.772 155.623 599.869 155.668C599.89 155.554 599.953 155.429 599.924 155.329C599.839 155.037 599.693 154.762 599.614 154.469C599.227 153.04 598.549 151.748 597.733 150.53C596.386 148.521 594.785 146.732 592.921 145.185C591.363 143.892 589.724 142.72 587.939 141.756C586.349 140.898 584.718 140.143 582.928 139.818C581.614 139.579 580.289 139.25 578.966 139.237C577.504 139.222 576.026 139.447 574.582 139.715C573.766 139.866 573.005 140.313 572.224 140.636C572.165 140.66 572.137 140.755 572.094 140.817C572.176 140.832 572.257 140.853 572.34 140.858C572.43 140.864 572.528 140.874 572.612 140.848C574.5 140.273 576.44 140.366 578.356 140.532C580.001 140.673 581.612 141.053 583.201 141.579C585.191 142.239 586.965 143.258 588.686 144.4C589.49 144.934 590.228 145.567 591.044 146.221ZM706.079 118.945C704.893 120.319 703.583 121.589 701.975 122.422C699.271 123.822 696.319 124.534 693.345 125.086C691.551 125.418 689.721 125.551 687.91 125.791C687.698 125.82 687.502 125.963 687.299 126.052C687.537 126.124 687.779 126.265 688.014 126.257C689.515 126.2 691.017 126.129 692.517 126.025C694.134 125.912 695.751 125.786 697.362 125.616C699.358 125.404 701.32 124.999 703.17 124.201C704.62 123.576 706.067 122.925 707.452 122.17C708.615 121.537 709.454 120.511 710.231 119.439C710.535 119.02 710.623 118.811 710.176 118.406C709.583 117.869 709.095 117.208 708.607 116.566C708.204 116.037 708.235 116.016 707.951 116.558C707.903 116.652 707.816 116.726 707.75 116.811C707.215 117.506 706.68 118.201 706.079 118.945ZM702.741 116.319C702.448 116.871 702.225 117.476 701.85 117.965C700.774 119.367 699.557 120.615 698.052 121.598C696.228 122.789 694.322 123.757 692.227 124.354C692.046 124.405 691.9 124.577 691.738 124.693C691.945 124.737 692.151 124.784 692.359 124.821C692.385 124.825 692.417 124.767 692.452 124.758C694.198 124.323 695.95 123.916 697.688 123.453C700.255 122.769 702.645 121.708 704.515 119.762C705.523 118.712 706.426 117.556 707.315 116.401C707.832 115.729 707.774 115.494 707.145 115.151C706.171 114.619 705.131 114.239 704.018 114.138C703.855 114.122 703.586 114.334 703.506 114.506C703.239 115.078 703.035 115.68 702.741 116.319Z" fill="black"/>
</g>
</svg>
